<?xml version="1.0" encoding="UTF-8" ?>
<svg width="456" height="456" viewBox="0 0 456 456" fill="none" xmlns="http://www.w3.org/2000/svg">
    <rect width="456" height="456" fill="#512BD4"/>
    <g transform="translate(128, 128)">
        <!-- PocketFence logo -->
        <text x="100" y="120" font-family="Arial, sans-serif" font-size="32" font-weight="bold" fill="white" text-anchor="middle">
            PocketFence
        </text>
        <text x="100" y="150" font-family="Arial, sans-serif" font-size="16" fill="white" text-anchor="middle" opacity="0.8">
            Secure. Simple. Smart.
        </text>
        
        <!-- Shield with WiFi -->
        <g transform="translate(50, 20)">
            <path d="M100 10 L120 25 L120 75 C120 85 110 95 100 95 C90 95 80 85 80 75 L80 25 Z" 
                  fill="white" 
                  opacity="0.9"/>
            <!-- WiFi waves -->
            <circle cx="100" cy="55" r="8" fill="#512BD4"/>
            <path d="M 85 55 A 15 15 0 0 1 115 55" stroke="white" stroke-width="3" fill="none"/>
            <path d="M 75 55 A 25 25 0 0 1 125 55" stroke="white" stroke-width="3" fill="none" opacity="0.7"/>
            <path d="M 65 55 A 35 35 0 0 1 135 55" stroke="white" stroke-width="3" fill="none" opacity="0.5"/>
        </g>
    </g>
</svg>